<!DOCTYPE svg PUBLIC "-//W3C//DTD SVG 1.1//EN" "http://www.w3.org/Graphics/SVG/1.1/DTD/svg11.dtd">
<!-- Uploaded to: SVG Repo, www.svgrepo.com, Transformed by: SVG Repo Mixer Tools -->
<svg height="800px" width="800px" version="1.1" id="Layer_1" xmlns="http://www.w3.org/2000/svg" xmlns:xlink="http://www.w3.org/1999/xlink" viewBox="0 0 512 512" xml:space="preserve" fill="#000000">
<g id="SVGRepo_bgCarrier" stroke-width="0"/>
<g id="SVGRepo_tracerCarrier" stroke-linecap="round" stroke-linejoin="round"/>
<g id="SVGRepo_iconCarrier"> <g transform="translate(1 1)"> <path style="fill:#FFFFFF;" d="M212.333,37.4H24.6c-9.387,0-17.067,7.68-17.067,17.067v42.667v85.333H229.4v-76.8v-51.2 C229.4,45.08,221.72,37.4,212.333,37.4"/> <path style="fill:#E0E0E0;" d="M229.4,105.667v-51.2c0-9.387-7.68-17.067-17.067-17.067h-93.867 c-9.387,0-17.067,7.68-17.067,17.067v42.667v85.333h401.067v-59.733c0-9.387-7.68-17.067-17.067-17.067H229.4z"/> <path style="fill:#F0F0F0;" d="M229.4,105.667v-51.2c0-9.387-7.68-17.067-17.067-17.067H50.2c-9.387,0-17.067,7.68-17.067,17.067 v42.667v85.333h443.733v-59.733c0-9.387-7.68-17.067-17.067-17.067H229.4z"/> <path style="fill:#CCCCCC;" d="M485.4,472.6H297.667c-9.387,0-17.067-7.68-17.067-17.067V182.467h221.867v273.067 C502.467,464.92,494.787,472.6,485.4,472.6"/> <path style="fill:#FFFFFF;" d="M212.333,472.6H24.6c-9.387,0-17.067-7.68-17.067-17.067V182.467H229.4v273.067 C229.4,464.92,221.72,472.6,212.333,472.6"/> <path style="fill:#d9c2ef;" d="M459.8,472.6H50.2c-9.387,0-17.067-7.68-17.067-17.067V182.467h443.733v273.067 C476.867,464.92,469.187,472.6,459.8,472.6"/> <g> <path style="fill:#ac74f5;" d="M485.4,481.133H24.6c-14.507,0-25.6-11.947-25.6-25.6V182.467c0-5.12,3.413-8.533,8.533-8.533 h494.933c5.12,0,8.533,3.413,8.533,8.533v273.067C511,469.187,499.053,481.133,485.4,481.133z M16.067,191v264.533 c0,5.12,4.267,8.533,8.533,8.533h460.8c5.12,0,8.533-4.267,8.533-8.533V191H16.067z"/> <path style="fill:#ac74f5;" d="M502.467,191H7.533C2.413,191-1,187.587-1,182.467v-128c0-14.507,11.947-25.6,25.6-25.6h187.733 c14.507,0,25.6,11.947,25.6,25.6v42.667H485.4c14.507,0,25.6,11.947,25.6,25.6v59.733C511,187.587,507.587,191,502.467,191z M16.067,173.933h477.867v-51.2c0-5.12-4.267-8.533-8.533-8.533h-256c-5.12,0-8.533-3.413-8.533-8.533v-51.2 c0-5.12-4.267-8.533-8.533-8.533H24.6c-4.267,0-8.533,4.267-8.533,8.533V173.933z"/> <path style="fill:#ac74f5;" d="M280.6,284.867H161.133c-5.12,0-8.533-3.413-8.533-8.533s3.413-8.533,8.533-8.533H280.6 c5.12,0,8.533,3.413,8.533,8.533S285.72,284.867,280.6,284.867z"/> <path style="fill:#ac74f5;" d="M348.867,336.067H161.133c-5.12,0-8.533-3.413-8.533-8.533s3.413-8.533,8.533-8.533h187.733 c5.12,0,8.533,3.413,8.533,8.533S353.987,336.067,348.867,336.067z"/> <path style="fill:#ac74f5;" d="M348.867,387.267H161.133c-5.12,0-8.533-3.413-8.533-8.533c0-5.12,3.413-8.533,8.533-8.533h187.733 c5.12,0,8.533,3.413,8.533,8.533C357.4,383.853,353.987,387.267,348.867,387.267z"/> </g> </g> </g>
</svg>