<svg width="18" height="20" viewBox="0 0 18 20" fill="none" xmlns="http://www.w3.org/2000/svg">
<g clip-path="url(#clip0_242_2872)">
<path d="M17.9914 10.1871C17.9914 9.36767 17.9302 8.76973 17.7977 8.14966H9.17932V11.848H14.2381C14.1361 12.7671 13.5854 14.1512 12.3615 15.0813L12.3443 15.2051L15.0693 17.4969L15.258 17.5174C16.9919 15.7789 17.9914 13.221 17.9914 10.1871Z" fill="#4285F4"/>
<path d="M9.17932 19.9313C11.6577 19.9313 13.7383 19.0454 15.258 17.5174L12.3615 15.0813C11.5863 15.6682 10.546 16.0779 9.17932 16.0779C6.75192 16.0779 4.6917 14.3395 3.95728 11.9366L3.84963 11.9466L1.01618 14.3273L0.979126 14.4391C2.48859 17.6945 5.58916 19.9313 9.17932 19.9313Z" fill="#34A853"/>
<path d="M3.95726 11.9366C3.76348 11.3165 3.65133 10.6521 3.65133 9.96559C3.65133 9.27902 3.76348 8.61467 3.94706 7.9946L3.94193 7.86253L1.07297 5.4436L0.979102 5.49208C0.356977 6.84299 0 8.36002 0 9.96559C0 11.5712 0.356977 13.0881 0.979102 14.439L3.95726 11.9366Z" fill="#FBBC05"/>
<path d="M9.17932 3.85336C10.903 3.85336 12.0656 4.66168 12.7286 5.33718L15.3192 2.59107C13.7282 0.985496 11.6577 0 9.17932 0C5.58916 0 2.48859 2.23672 0.979126 5.49214L3.94709 7.99466C4.6917 5.59183 6.75192 3.85336 9.17932 3.85336Z" fill="#EB4335"/>
</g>
<defs>
<clipPath id="clip0_242_2872">
<rect width="18" height="20" fill="white"/>
</clipPath>
</defs>
</svg>
