<!DOCTYPE svg PUBLIC "-//W3C//DTD SVG 1.1//EN" "http://www.w3.org/Graphics/SVG/1.1/DTD/svg11.dtd">
<!-- Uploaded to: SVG Repo, www.svgrepo.com, Transformed by: SVG Repo Mixer Tools -->
<svg height="800px" width="800px" version="1.1" id="Layer_1" xmlns="http://www.w3.org/2000/svg" xmlns:xlink="http://www.w3.org/1999/xlink" viewBox="0 0 512.227 512.227" xml:space="preserve" fill="#000000">
<g id="SVGRepo_bgCarrier" stroke-width="0"/>
<g id="SVGRepo_tracerCarrier" stroke-linecap="round" stroke-linejoin="round"/>
<g id="SVGRepo_iconCarrier"> <g transform="translate(0 1)"> <path style="fill:#FFFFFF;" d="M289.507,203.914V74.207c0-4.267-2.56-6.827-5.973-6.827h-83.627c-2.56,0-4.267-0.853-5.973-3.413 l-22.187-36.693c-0.853-1.707-2.56-2.56-5.12-2.56H48.867c-3.413,0-6.827,2.56-6.827,6.827v172.373H289.507z"/> <path style="fill:#CCCCCC;" d="M462.734,67.38h-83.627c-2.56,0-4.267-0.853-5.973-3.413l18.773,139.947h76.8V74.207 C468.707,69.94,466.147,67.38,462.734,67.38"/> <path style="fill:#d9c2ef;" d="M443.107,203.914V74.207c0-4.267-2.56-6.827-5.973-6.827h-232.96c-2.56,0-4.267-0.853-5.973-3.413 l-22.187-36.693c0-1.707-2.56-2.56-4.267-2.56h-97.28c-3.413,0-6.827,2.56-6.827,6.827v172.373H443.107z"/> <path style="fill:#CCCCCC;" d="M458.467,485.514H323.64c-0.853,0-1.707-0.853-2.56-1.707l-41.813-277.333 c0-1.707,0.853-2.56,2.56-2.56H500.28c1.707,0,2.56,0.853,2.56,2.56l-42.667,277.333 C460.174,484.66,459.32,485.514,458.467,485.514"/> <path style="fill:#FFFFFF;" d="M186.254,485.514H51.427c-0.853,0-1.707-0.853-2.56-1.707L7.054,206.473 c0-1.707,0.853-2.56,2.56-2.56h218.453c1.707,0,2.56,0.853,2.56,2.56l-41.813,277.333 C187.96,484.66,187.107,485.514,186.254,485.514"/> <g> <polygon style="fill:#F0F0F0;" points="67.64,203.914 443.107,203.914 443.107,169.78 67.64,169.78 "/> <polygon style="fill:#F0F0F0;" points="76.174,169.78 434.574,169.78 434.574,144.18 76.174,144.18 "/> <polygon style="fill:#F0F0F0;" points="84.707,144.18 426.04,144.18 426.04,118.58 84.707,118.58 "/> </g> <path style="fill:#d9c2ef;" d="M432.867,485.514H77.88c-0.853,0-1.707-0.853-1.707-1.707L33.507,206.473 c0-1.707,0.853-2.56,2.56-2.56H474.68c1.707,0,2.56,0.853,2.56,2.56l-42.667,277.333 C434.574,484.66,433.72,485.514,432.867,485.514"/> <polygon style="fill:#e0e0e0;" points="238.307,425.78 400.44,425.78 400.44,323.38 238.307,323.38 "/> <polygon style="fill:#F0F0F0;" points="238.307,425.78 374.84,425.78 374.84,323.38 238.307,323.38 "/> <g> <path style="fill:#ac74f5;" d="M458.467,494.047H52.28c-5.12,0-10.24-4.267-11.093-9.387L0.227,208.18 c-0.853-3.413,0.853-5.973,2.56-8.533c1.707-2.56,5.12-3.413,8.533-3.413h489.813c3.413,0,5.973,1.707,8.533,3.413 c1.707,2.56,2.56,5.973,2.56,8.533l-43.52,276.48C467.854,489.78,463.587,494.047,458.467,494.047z M58.254,476.98h395.093 l40.107-264.533H18.147L58.254,476.98z"/> <path style="fill:#ac74f5;" d="M468.707,212.447H42.04c-5.12,0-8.533-3.413-8.533-8.533V31.54c0-8.533,6.827-15.36,15.36-15.36 h117.76c5.12,0,10.24,2.56,12.8,7.68l21.333,34.987h261.973c8.533,0,15.36,6.827,15.36,15.36v129.707 C477.24,209.034,473.827,212.447,468.707,212.447z M50.574,195.38h409.6V75.913H199.907c-5.12,0-10.24-2.56-12.8-7.68 l-21.333-34.987h-115.2V195.38z"/> <path style="fill:#ac74f5;" d="M443.107,212.447H67.64c-5.12,0-8.533-3.413-8.533-8.533V169.78c0-5.12,3.413-8.533,8.533-8.533 h375.467c5.12,0,8.533,3.413,8.533,8.533v34.133C451.64,209.034,448.227,212.447,443.107,212.447z M76.174,195.38h358.4v-17.067 h-358.4V195.38z"/> <path style="fill:#ac74f5;" d="M434.574,178.314h-358.4c-5.12,0-8.533-3.413-8.533-8.533v-25.6c0-5.12,3.413-8.533,8.533-8.533 h358.4c5.12,0,8.533,3.413,8.533,8.533v25.6C443.107,174.9,439.694,178.314,434.574,178.314z M84.707,161.247H426.04v-8.533 H84.707V161.247z"/> <path style="fill:#ac74f5;" d="M426.04,152.714H84.707c-5.12,0-8.533-3.413-8.533-8.533v-25.6c0-5.12,3.413-8.533,8.533-8.533 H426.04c5.12,0,8.533,3.413,8.533,8.533v25.6C434.574,149.3,431.16,152.714,426.04,152.714z M93.24,135.647h324.267v-8.533H93.24 V135.647z"/> <path style="fill:#ac74f5;" d="M400.44,434.314H238.307c-5.12,0-8.533-3.413-8.533-8.533v-102.4c0-5.12,3.413-8.533,8.533-8.533 H400.44c5.12,0,8.533,3.413,8.533,8.533v102.4C408.974,430.9,405.56,434.314,400.44,434.314z M246.84,417.247h145.067v-85.333 H246.84V417.247z"/> <path style="fill:#ac74f5;" d="M306.574,366.047H272.44c-5.12,0-8.533-3.413-8.533-8.533s3.413-8.533,8.533-8.533h34.133 c5.12,0,8.533,3.413,8.533,8.533S311.694,366.047,306.574,366.047z"/> <path style="fill:#ac74f5;" d="M349.24,366.047h-8.533c-5.12,0-8.533-3.413-8.533-8.533s3.413-8.533,8.533-8.533h8.533 c5.12,0,8.533,3.413,8.533,8.533S354.36,366.047,349.24,366.047z"/> <path style="fill:#ac74f5;" d="M366.307,400.18H272.44c-5.12,0-8.533-3.413-8.533-8.533s3.413-8.533,8.533-8.533h93.867 c5.12,0,8.533,3.413,8.533,8.533S371.427,400.18,366.307,400.18z"/> </g> </g> </g>
</svg>